<?xml version="1.0" encoding="utf-8"?>
<!-- Generator: $$$/GeneralStr/196=Adobe Illustrator 27.6.0, SVG Export Plug-In . SVG Version: 6.00 Build 0)  -->
<svg version="1.1" id="图层_1" xmlns:cc="http://creativecommons.org/ns#"
	 xmlns="http://www.w3.org/2000/svg" xmlns:xlink="http://www.w3.org/1999/xlink" x="0px" y="0px" viewBox="0 0 512 512"
	 style="enable-background:new 0 0 512 512;" xml:space="preserve">
<style type="text/css">
	.st0{fill:#6C757D;}
	.st1{fill:#545454;}
	.st2{fill:#BFBFBF;}
</style>
<rect class="st0" width="512" height="512"/>
<g transform="translate(0 -161.53)">
	<g transform="matrix(1.0344 0 0 1.0869 -2.0685 -19.991)">
		<path class="st1" d="M43.3,384.5L43.3,384.5c6.3,0,11.3,5.1,11.3,11.3v65.7c0,6.3-5.1,11.3-11.3,11.3h0c-6.3,0-11.3-5.1-11.3-11.3
			v-65.7C32,389.6,37,384.5,43.3,384.5z"/>
		<path class="st1" d="M80.8,349.1L80.8,349.1c6.3,0,11.3,4.8,11.3,10.7v137.4c0,5.9-5.1,10.7-11.3,10.7l0,0
			c-6.3,0-11.3-4.8-11.3-10.7V359.8C69.5,353.9,74.5,349.1,80.8,349.1z"/>
		<path class="st1" d="M118.3,335.1L118.3,335.1c6.3,0,11.3,5.1,11.3,11.3v163.3c0,6.3-5.1,11.3-11.3,11.3l0,0
			c-6.3,0-11.3-5.1-11.3-11.3V346.5C106.9,340.2,112,335.1,118.3,335.1z"/>
		<path class="st1" d="M155.8,299.3L155.8,299.3c6.3,0,11.3,5.1,11.3,11.5v198.9c0,6.3-5.1,11.5-11.3,11.5h0
			c-6.3,0-11.3-5.1-11.3-11.5V310.8C144.4,304.4,149.5,299.3,155.8,299.3z"/>
		<path class="st1" d="M193.3,285.3L193.3,285.3c6.3,0,11.3,5.1,11.3,11.3v213.2c0,6.3-5.1,11.3-11.3,11.3h0
			c-6.3,0-11.3-5.1-11.3-11.3V296.6C181.9,290.3,187,285.3,193.3,285.3z"/>
		<path class="st1" d="M230.7,284L230.7,284c6.3,0,11.3,5.1,11.3,11.3v214.4c0,6.3-5.1,11.3-11.3,11.3l0,0
			c-6.3,0-11.3-5.1-11.3-11.3V295.4C219.4,289.1,224.5,284,230.7,284z"/>
		<path class="st1" d="M268.2,298.5L268.2,298.5c6.3,0,11.3,5.1,11.3,11.3v199.9c0,6.3-5.1,11.3-11.3,11.3l0,0
			c-6.3,0-11.3-5.1-11.3-11.3V309.9C256.9,303.6,262,298.5,268.2,298.5z"/>
		<path class="st1" d="M305.7,334.4L305.7,334.4c6.3,0,11.3,5.1,11.3,11.3v164.1c0,6.3-5.1,11.3-11.3,11.3l0,0
			c-6.3,0-11.3-5.1-11.3-11.3V345.7C294.4,339.4,299.5,334.4,305.7,334.4z"/>
		<path class="st1" d="M343.2,336.1L343.2,336.1c6.3,0,11.3,5.1,11.3,11.3v162.3c0,6.3-5.1,11.3-11.3,11.3l0,0
			c-6.3,0-11.3-5.1-11.3-11.3V347.4C331.9,341.2,337,336.1,343.2,336.1z"/>
		<path class="st1" d="M380.7,354.2L380.7,354.2c6.3,0,11.3,5.1,11.3,11.3v144.3c0,6.3-5.1,11.3-11.3,11.3l0,0
			c-6.3,0-11.3-5.1-11.3-11.3V365.5C369.4,359.2,374.4,354.2,380.7,354.2z"/>
		<path class="st1" d="M418.2,380.7L418.2,380.7c6.3,0,11.3,5.1,11.3,11.3v116.8c0,6.3-5.1,11.3-11.3,11.3l0,0
			c-6.3,0-11.3-5.1-11.3-11.3V392C406.9,385.8,411.9,380.7,418.2,380.7z"/>
		<path class="st1" d="M455.7,408L455.7,408c6.3,0,11.3,5.1,11.3,11.3v61.9c0,6.3-5.1,11.3-11.3,11.3l0,0c-6.3,0-11.3-5.1-11.3-11.3
			v-61.9C444.3,413.1,449.4,408,455.7,408z"/>
	</g>
</g>
<g>
	<path class="st2" d="M166.2,386.2c-3.5,3.5-8.1,7.8-13.8,13c-12.4,10.5-20.8,16.9-25.1,19c-6.2,3-12.1,5.3-17.8,6.9
		c-7,2.2-13.1,3.2-18.2,3.2c-11.1,0-16.6-4.7-16.6-14.2c0-11.3,7.8-19.6,23.5-24.7l19.4-5.3c7.6-1.9,13-3.8,16.2-5.7l10.9-7.3
		c4.3-2.7,8.2-4,11.7-4c1.6,0,3.2,0.1,4.9,0.4c2.2,0.3,3.9,0.8,5.3,1.6c3.8,1.9,5.7,4.6,5.7,8.1
		C172.2,378.9,170.2,381.9,166.2,386.2z M395.7,277.7c-2.2,4-3.6,8-4.5,11.7c-1.9,10.3-9.7,18-23.5,23.1c-10.5,4.3-22,6.5-34.4,6.5
		c-6.5,0-15-1.2-25.5-3.6c-0.3-0.3-0.8-0.4-1.6-0.4l-10.9-2.4c-4.6-1.1-8.8-1.8-12.5-2c-6.2,2.7-11.3,5.7-15.4,8.9
		c1.3,5.7,2,11.3,2,17V353c0,3.8,0.1,8.1,0.4,13l2,25.5c0.3,4.6,0.4,8.8,0.4,12.5c0,8.4-1.1,15.1-3.2,20.2c-3,7-8.1,10.5-15.4,10.5
		c-6.2,0-11.1-3-14.6-8.9c-3.2-4.9-4.9-10.5-4.9-17c0-4.6,0.9-11.2,2.8-19.8c1.6-8.9,2.4-15.5,2.4-19.8c0-2.7,0.1-5.7,0.4-8.9l2-17
		c0.3-3.2,0.4-6.1,0.4-8.5l-1.2-15c-3.8-3.8-8.5-6.7-14.2-8.9l-21.5-0.4c-3.2,0-7.8,0.9-13.8,2.8c-5.7,1.9-9.9,2.8-12.5,2.8
		c-1.1,0-2.3-0.1-3.6-0.4l-3.2-1.2l-36,7.7c-7.3,0-14.7-5.7-22.3-17c-7-10.3-10.5-19.4-10.5-27.5c0-3.5,0.5-8.8,1.6-15.8
		c1.1-8.1,2.4-15.6,4-22.7c4.9-20,10.7-30,17.4-30c4.9,0,8.4,2.4,10.5,7.3c1.6,3.5,2.4,8.1,2.4,13.8c0,6.5-0.9,11.5-2.8,15l0.8,8.5
		c0.3,1.1,0.4,2.4,0.4,4l0.4,4c0.3,5.9,0.9,10.3,2,13c2.7,7.8,10.7,11.7,23.9,11.7c2.7,0,6.6-0.4,11.7-1.2c5.1-0.8,8.9-1.2,11.3-1.2
		l12.5,1.2c3.8,0.5,9-0.4,15.8-2.8l7.7-2.4c3.2-0.8,5.9-1.2,8.1-1.2l9.3-6.5l0.8-8.5c-1.6-1.6-4.3-3.8-8.1-6.5l-12.5-1.6
		c-6.5-0.8-11.9-1.8-16.2-2.8c-6.2-1.1-11.2-2.4-15-4c-4.6-1.9-7.7-4-9.3-6.5c0.5-3,2.8-5.8,6.9-8.5c3.8-2.4,7.3-3.6,10.5-3.6
		c2.4,0,5.4-0.4,8.9-1.2c2.4-0.5,5.8-1.5,10.1-2.8l9.7-2.8c3.8-1.1,7-1.8,9.7-2l8.9-8.9l-0.4-4.5c-5.4-9.7-13.5-14.6-24.3-14.6
		c-6.5,0-13.6,0.8-21.5,2.4c-5.9,1.1-12.5,2.7-19.8,4.9l-16.2,5.3c-4.9,1.6-8.1,2.4-9.7,2.4c-7.8,0-11.7-3.8-11.7-11.3
		c0-7,3.6-12.8,10.9-17.4c5.7-3.5,14-6.3,25.1-8.5c7.8-1.6,17.4-2.8,28.7-3.6l21.9-1.2c4.9-2.7,9.2-5.5,13-8.5
		c-0.5-2.7-1.1-6.2-1.6-10.5c-2.7-3.8-5.9-6.5-9.7-8.1l-5.7-0.4c-5.4-0.5-12.8-0.1-22.3,1.2c-0.3,0.3-1.2,0.4-2.8,0.4l-8.1,1.2
		c-4.3,0.5-8.1,0.8-11.3,0.8c-1.4,0-2.8-0.1-4.5-0.4l-8.5-1.2c-1.6-0.3-3.1-0.4-4.5-0.4l-10.9,0.8c-4.6,0.5-8.5,0.7-11.7,0.4
		c-5.4,1.1-9.6,1.6-12.5,1.6c-14.8,0-22.3-5.8-22.3-17.4c0-5.9,2.8-10.9,8.5-15c4.9-3.5,10.4-5.3,16.6-5.3c4.6,0,11.2,1.1,19.8,3.2
		c8.6,2.2,15.4,3.2,20.2,3.2c4,0,8.8-0.3,14.2-0.8l13-1.6c0.5,0,1.1-0.1,1.6-0.4c12.7-1.6,22.3-2.2,28.7-1.6
		c2.2-1.6,5.4-4.3,9.7-8.1c-1.6-9.4-1.2-17.1,1.2-23.1c3-8.1,8.9-12.1,17.8-12.1c11.3,0,17,6.1,17,18.2c0,4.6-0.7,9.6-2,15
		c4,3.5,7.7,6.1,10.9,7.7c3.5-0.3,8.5,0.4,15,2l7.3,1.6c2.7,0.5,5.3,0.8,7.7,0.8s6.6-1.2,12.5-3.6c5.7-2.2,10.4-3.2,14.2-3.2h13.8
		c7,0.3,13.2,0.8,18.6,1.6c15.1,2.7,22.7,8.2,22.7,16.6c0,6.7-4.3,12-13,15.8c-6.7,2.7-14,4-21.9,4c-5.4,0-13.5-0.8-24.3-2.4
		c-10.8-1.6-18.8-2.4-23.9-2.4c-1.6,0-3.2-0.1-4.9-0.4l-14.2-1.2c-8.4,0-15.7,3.1-21.9,9.3l-0.8,8.9c0,2.4,0.4,5.1,1.2,8.1
		c7,5.9,16.5,10.1,28.3,12.5c8.6,1.9,19.2,2.8,31.6,2.8c16.7,0,31.3,5.7,43.7,17c12.7,11.6,19,25.9,19,42.9c0,3,1.1,7.6,3.2,13.8
		c1.9,5.9,2.8,10.5,2.8,13.8C398.9,269,397.9,273.7,395.7,277.7z M208.7,355.4c-9.7,8.6-17.3,13-22.7,13c-1.9,0-3.5-0.1-4.9-0.4
		c-1.9-0.5-3.2-1.3-4-2.4l-2-5.3c0-7.3,4.6-15.4,13.8-24.3c8.9-8.6,17-13,24.3-13c4.6,0,8,3.4,10.1,10.1
		C223.2,339.1,218.4,346.5,208.7,355.4z M344.3,208.9c-5.7-3.2-14-5.7-25.1-7.3c-3.5-0.8-8.9-1.6-16.2-2.4l-18.6-2.4
		c-7,2.4-13.1,5.3-18.2,8.5l-0.8,6.1l7.7,7.7c0.5,0.5,1.1,0.9,1.6,1.2c1.3,1.1,2.4,2.2,3.2,3.2l8.5,1.2c1.6,0,2.8,0.1,3.6,0.4
		c6.5,0.8,11.9,1.6,16.2,2.4c13,2.7,20.2,6.6,21.9,11.7c-2.2,6.5-8.5,10.5-19,12.1c-3.2,0.5-7.7,0.9-13.4,1.2
		c-5.9,0.3-9.9,0.5-11.7,0.8l-15.8,10.1c0.5,3,0.4,5.5-0.4,7.7c1.9,1.6,4.2,3.4,6.9,5.3l7.3,4.5c6.5-0.5,14.7,0,24.7,1.6l11.7,1.6
		c4.3,0.5,8.4,0.8,12.1,0.8c9.2,0,16.7-1.5,22.7-4.5c7.3-3.8,10.9-9.8,10.9-18.2C364.1,234.5,357.5,216.7,344.3,208.9z M414.3,430.7
		c-9.5,0-23.6-6.5-42.5-19.4c-7-4.9-14.3-10.3-21.9-16.2c-6.2-5.1-11.6-9.8-16.2-14.2c-1.1-1.1-2.2-2.4-3.2-4l-3.2-4.5
		c-2.7-3.8-5.1-6.5-7.3-8.1l-8.1-5.3c-3.8-2.4-6.7-4.5-8.9-6.1c-6.2-5.1-9.2-10.7-8.9-16.6l4-3.6l6.5-1.2c2.7-0.5,8.2,1.9,16.6,7.3
		l27.1,19c12.7,8.6,23.9,15.3,33.6,19.8c13.2,6.2,25.1,9.7,35.6,10.5c14.3,0.8,21.5,7.8,21.5,21.1
		C439,423.6,430.8,430.7,414.3,430.7z"/>
</g>
</svg>
