<?xml version="1.0" encoding="utf-8"?>
<!-- Generator: $$$/GeneralStr/196=Adobe Illustrator 27.6.0, SVG Export Plug-In . SVG Version: 6.00 Build 0)  -->
<svg version="1.1" xmlns="http://www.w3.org/2000/svg" xmlns:xlink="http://www.w3.org/1999/xlink" x="0px" y="0px"
	 viewBox="0 0 135.5 135.5" style="enable-background:new 0 0 135.5 135.5;" xml:space="preserve">
<style type="text/css">
	.st0{fill:#218FCC;}
	.st1{enable-background:new    ;}
	.st2{fill:#8C0000;}
</style>
<g id="图层_1">
	<g>
		<g id="svg_1">
			<g id="svg_2" transform="matrix(1.05178 0 0 0.672465 -2.24103 -11.7383)">
				<path id="svg_3" class="st0" d="M13.6,104.6L13.6,104.6c1.7,0,3,2.5,3,5.6v32.6c0,3.1-1.3,5.6-3,5.6h0c-1.7,0-3-2.5-3-5.6v-32.6
					C10.6,107.1,11.9,104.6,13.6,104.6z"/>
				<path id="svg_4" class="st0" d="M23.5,87.1L23.5,87.1c1.7,0,3,2.4,3,5.3v68.2c0,2.9-1.3,5.3-3,5.3l0,0c-1.7,0-3-2.4-3-5.3V92.4
					C20.5,89.5,21.9,87.1,23.5,87.1z"/>
				<path id="svg_5" class="st0" d="M33.4,80.1L33.4,80.1c1.7,0,3,2.5,3,5.6v81.1c0,3.1-1.3,5.6-3,5.6l0,0c-1.7,0-3-2.5-3-5.6V85.8
					C30.4,82.6,31.8,80.1,33.4,80.1z"/>
				<path id="svg_6" class="st0" d="M43.4,62.3L43.4,62.3c1.7,0,3,2.6,3,5.7v98.7c0,3.1-1.3,5.7-3,5.7h0c-1.7,0-3-2.6-3-5.7V68
					C40.4,64.9,41.7,62.3,43.4,62.3z"/>
				<path id="svg_7" class="st0" d="M53.3,55.4L53.3,55.4c1.7,0,3,2.5,3,5.6v105.8c0,3.1-1.3,5.6-3,5.6h0c-1.7,0-3-2.5-3-5.6V61
					C50.3,57.9,51.6,55.4,53.3,55.4z"/>
				<path id="svg_8" class="st0" d="M63.2,54.8L63.2,54.8c1.7,0,3,2.5,3,5.6v106.4c0,3.1-1.3,5.6-3,5.6l0,0c-1.7,0-3-2.5-3-5.6V60.4
					C60.2,57.3,61.5,54.8,63.2,54.8z"/>
				<path id="svg_9" class="st0" d="M73.1,62L73.1,62c1.7,0,3,2.5,3,5.6v99.2c0,3.1-1.3,5.6-3,5.6l0,0c-1.7,0-3-2.5-3-5.6V67.6
					C70.1,64.5,71.5,62,73.1,62z"/>
				<path id="svg_10" class="st0" d="M83,79.8L83,79.8c1.7,0,3,2.5,3,5.6v81.5c0,3.1-1.3,5.6-3,5.6l0,0c-1.7,0-3-2.5-3-5.6V85.4
					C80,82.3,81.4,79.8,83,79.8z"/>
				<path id="svg_11" class="st0" d="M93,80.6L93,80.6c1.7,0,3,2.5,3,5.6v80.6c0,3.1-1.3,5.6-3,5.6l0,0c-1.7,0-3-2.5-3-5.6V86.2
					C90,83.1,91.3,80.6,93,80.6z"/>
				<path id="svg_12" class="st0" d="M102.9,89.6L102.9,89.6c1.7,0,3,2.5,3,5.6v71.6c0,3.1-1.3,5.6-3,5.6l0,0c-1.7,0-3-2.5-3-5.6
					V95.2C99.9,92.1,101.2,89.6,102.9,89.6z"/>
				<path id="svg_13" class="st0" d="M112.8,102.8L112.8,102.8c1.7,0,3,2.5,3,5.6v58c0,3.1-1.3,5.6-3,5.6l0,0c-1.7,0-3-2.5-3-5.6
					v-58C109.8,105.3,111.1,102.8,112.8,102.8z"/>
				<path id="svg_14" class="st0" d="M122.7,116.3L122.7,116.3c1.7,0,3,2.5,3,5.6v30.7c0,3.1-1.3,5.6-3,5.6l0,0c-1.7,0-3-2.5-3-5.6
					v-30.7C119.7,118.8,121.1,116.3,122.7,116.3z"/>
			</g>
		</g>
	</g>
</g>
<g id="图层_2">
	<g id="svg_15" class="st1">
		<path class="st2" d="M20.1,51.7h19c2-0.1,3.9-0.3,5.6-0.7c0.7-0.2,1.4-0.3,1.9-0.3c1.9,0,3.8,1.3,5.7,3.8c1.8,2.5,2.8,5.1,2.8,7.8
			c0,1.8-0.6,3.2-1.9,4c-1,0.6-2.1,0.9-3.5,0.9c-1.3,0-2.4-0.3-3.3-0.9s-1.9-1.6-2.8-3.1c-0.8-1.3-1.4-2.2-1.9-2.6
			c-0.5-0.4-1-0.6-1.7-0.6c-0.9,0-1.5,0.3-1.9,1c-0.4,0.7-0.6,1.7-0.6,3.2v17.6c0,1.8,0.2,3.1,0.6,3.9c0.4,0.8,1.3,1.4,2.5,1.9
			c1.3,0.5,2.2,0.9,2.7,1.4c0.5,0.4,0.7,1,0.7,1.8c0,1.5-1.2,2.6-3.5,3.4c-2.3,0.7-6,1.1-10.8,1.1c-6,0-10.4-0.4-13.3-1.3
			c-2.4-0.7-3.6-1.9-3.6-3.5c0-0.9,0.4-1.5,1.3-2c0.2-0.1,1.1-0.4,2.6-0.8c0.9-0.2,1.5-0.7,1.9-1.3c0.3-0.7,0.6-1.9,0.8-3.7
			c0.2-1.6,0.4-4.3,0.5-8c0.2-3.7,0.3-6.8,0.3-9.5c0-1.9-0.2-3.2-0.5-4c-0.3-0.8-0.9-1.2-1.7-1.2c-0.9,0-1.9,0.6-2.7,1.8
			c-1.6,2.1-2.9,3.6-4,4.3c-1.2,0.8-2.4,1.2-3.6,1.2c-1.3,0-2.4-0.4-3.2-1.3c-0.8-0.9-1.3-1.9-1.3-3.3c0-1.3,0.3-2.7,1-4.3
			c0.7-1.6,1.6-3,2.7-4.3c1.8-2.1,3.6-3.2,5.4-3.2c0.5,0,1,0.1,1.7,0.2c1.3,0.2,2.4,0.4,3.2,0.5C18,51.7,19,51.7,20.1,51.7z"/>
		<path class="st2" d="M90.5,51c7.5,0,11.3,1.4,11.3,4.1c0,0.7-0.2,1.3-0.6,1.8c-0.4,0.5-1.1,1-2.2,1.5c-0.9,0.5-1.5,1.2-1.8,2
			s-0.4,2.5-0.4,5c0,1.5,0.3,2.4,0.9,2.7c0.4,0.2,0.9,0.3,1.6,0.4c0.7,0,2.5,0.1,5.2,0.1c2.5,0,4-0.1,4.6-0.3
			c0.6-0.2,0.9-0.8,0.9-1.7c0-2.8-0.1-4.7-0.4-5.8c-0.3-1.1-0.9-1.8-1.7-2.2c-1.1-0.5-1.8-1-2.1-1.3c-0.3-0.4-0.5-0.9-0.5-1.5
			c0-0.9,0.4-1.6,1.1-2.3c0.7-0.7,1.7-1.2,2.9-1.4c2.5-0.5,5.6-0.8,9.4-0.8c4.4,0,7.7,0.4,9.8,1.1c2.1,0.7,3.2,1.8,3.2,3.3
			c0,1.3-0.7,2.2-2.2,2.8c-0.9,0.4-1.6,0.7-1.8,1.1s-0.5,1-0.7,1.9c-0.1,0.5-0.2,2.9-0.4,7c-0.1,4.1-0.2,7.4-0.2,9.9
			c0,4.3,0.2,7,0.5,8.1c0.2,0.6,0.4,1.1,0.6,1.3c0.2,0.2,1,0.6,2.3,1.3c0.9,0.4,1.4,1.1,1.4,2c0,1.6-1.1,2.8-3.3,3.5
			c-2.2,0.7-5.7,1.1-10.6,1.1c-4.3,0-7.4-0.4-9.5-1.1c-1.9-0.7-2.8-1.7-2.8-3.1c0-1.2,0.7-2.1,2.1-2.8c0.7-0.3,1.2-0.7,1.4-1
			c0.3-0.3,0.5-1,0.7-1.9c0.4-1.8,0.7-3.9,0.7-6.5c0-1.3-0.2-2.1-0.7-2.5c-0.4-0.3-1.6-0.5-3.5-0.5c-4.3,0-7.1,0.2-8.2,0.6
			c-0.5,0.2-0.8,0.7-0.9,1.5c-0.1,1-0.2,2.2-0.2,3.7c0,2.4,0.4,4.1,1.2,5.2c0.3,0.3,0.9,0.8,1.9,1.3c1,0.5,1.5,1.3,1.5,2.5
			c0,1.5-1.2,2.6-3.5,3.4c-2.3,0.8-5.7,1.2-10,1.2c-3.9,0-7.2-0.4-9.7-1.1c-1.1-0.3-1.9-0.8-2.5-1.3c-0.6-0.6-0.9-1.2-0.9-1.9
			c0-0.7,0.2-1.2,0.6-1.6c0.4-0.4,1.2-0.9,2.5-1.4c0.7-0.3,1.1-0.7,1.4-1.1c0.3-0.5,0.5-1.2,0.6-2.3c0.4-2.5,0.5-5.7,0.5-9.6
			c0-0.7,0-1.6,0-2.6c-0.1-5-0.1-7.9-0.1-8.6c0-1.8-0.2-3-0.5-3.6c-0.4-0.6-1.4-1.2-2.9-1.9c-1.1-0.4-1.6-1.1-1.6-2
			c0-2.1,2.4-3.6,7.1-4.4C84.8,51.3,87.6,51,90.5,51z"/>
	</g>
</g>
</svg>
