<?xml version="1.0" encoding="utf-8"?>
<!-- Generator: $$$/GeneralStr/196=Adobe Illustrator 27.6.0, SVG Export Plug-In . SVG Version: 6.00 Build 0)  -->
<svg version="1.1" id="图层_1" xmlns="http://www.w3.org/2000/svg" xmlns:xlink="http://www.w3.org/1999/xlink" x="0px" y="0px"
	 viewBox="0 0 50 50" style="enable-background:new 0 0 50 50;" xml:space="preserve">
<style type="text/css">
	.st0{fill:#008CFF;}
</style>
<path class="st0" d="M15,49.3C15,49.3,15,49.3,15,49.3c-0.9,0-1.8,0-2.7,0c0.1-0.2,0-0.2-0.3-0.2c-0.1,0-0.2,0-0.2-0.1
	c-0.1,0-0.1-0.1-0.2-0.1c0-0.8,0-1.6-0.1-2.3c0-0.9,0-1.8,0-2.7c0-0.1,0-0.2,0-0.3c0,0,0-0.1,0-0.1c0-0.8,0-1.5-0.1-2.3
	c0-0.9,0-1.8,0-2.7c0-0.9,0.1-1.8,0.1-2.7c-0.3,0-0.6,0-0.8,0c-0.8,0-1.6,0-2.4,0c0-0.1-0.1-0.2-0.2-0.2c-0.1,0-0.2-0.1-0.4-0.1
	c0-0.1,0.1-0.1,0.1-0.2c0-0.5,0-1,0-1.5c0,0-0.1-0.1-0.1-0.1c0,0,0-0.1,0-0.1c0,0,0.1-0.1,0.1-0.1c0-0.3,0-0.7,0-1
	c0-0.1-0.1-0.1-0.1-0.2c0-0.1,0-0.2,0-0.3c0.1-0.1,0.2-0.1,0.3-0.2c1.2,0,2.3,0,3.5,0c0-0.5,0-0.9,0-1.3c0-0.9,0-1.8,0-2.6
	c-0.1,0-0.1,0-0.1,0c-0.9,0-1.8,0-2.8,0c-0.2,0-0.4,0-0.5-0.1c-0.6-0.4-1.3-0.9-1.9-1.3c-0.1,0-0.1-0.1-0.2-0.1
	c-0.1-0.1-0.2-0.1-0.3-0.2c-0.4-0.3-0.8-0.5-1.1-0.8c0,0,0,0,0,0c0,0-0.1,0-0.1-0.1c0,0-0.1-0.1-0.1-0.1C4.1,25,4.1,25,4,24.9
	c-0.5-0.3-1-0.7-1.5-1c-0.4-0.3-0.9-0.6-1.3-0.8c0-0.3,0-0.3-0.4-0.3c0,0,0,0,0,0c0-0.1,0.1-0.2,0.1-0.3c0.5,0.1,0.9,0.1,1.4,0.2
	c0.2,0,0.4,0,0.6,0c0.4,0,0.7,0.1,1.1,0.1c0.4,0,0.8,0.1,1.2,0.1C5.7,23,6.3,23,6.9,23.1c0.2,0,0.4,0,0.6,0.1c0,0,0,0,0,0
	c0,0,0,0,0,0c0,0,0.1,0,0.1,0c0.2,0,0.5,0,0.7,0c0.6,0,1.2,0.1,1.8,0.1c0,0,0.1,0,0.1,0c0.4,0,0.7,0,1.1,0.1c0.4,0,0.8,0,1.3,0.1
	c0.2,0,0.4,0,0.5,0.1c0.1,0.1,0.3,0.1,0.5,0c0.2,0,0.3,0,0.5,0c0,0.1,0.1,0.2,0.3,0.2c0.2,0,0.4,0,0.5,0c0.2,0,0.4,0,0.5-0.1
	c0.3,0,0.7,0.1,1,0.1c0.1,0.1,0.3,0.1,0.4,0.1c0.2,0,0.4,0,0.6,0c0.1,0,0.2-0.1,0.3-0.1c0.1,0,0.3,0,0.4,0c0,0.1,0.1,0.2,0.2,0.2
	c0.2,0,0.4,0,0.6,0c0.1,0,0.2,0,0.2-0.1c0.9,0,1.9-0.1,2.8,0.1c0.1,0.1,0.3,0.1,0.5,0c0.1,0,0.1,0,0.2,0c0.1,0.1,0.6,0.1,0.7,0
	c0,0,0,0,0-0.1c0.1,0,0.2,0,0.2,0c0,0.1,0.1,0.1,0.2,0.1c0.5,0,1,0,1.6,0c0.2,0,0.3-0.1,0.5-0.1c0,0,0.1,0,0.1,0c0,0,0,0,0,0
	c0.5,0,1,0,1.5,0c0,0,0,0,0-0.1c0.2,0,0.3,0,0.5,0c0,0,0,0,0,0c0,0,0,0,0,0c0.1,0,0.3,0,0.4,0c0.1,0,0.1,0.1,0.2,0.1
	c0,0,0.1-0.1,0.1-0.1c0.5,0,1,0,1.6,0c0,0,0.1,0.1,0.1,0.1c0,0,0.1-0.1,0.1-0.1c0.2,0,0.4,0,0.6,0c0,0.1,0,0.2,0.2,0.1
	c0.1,0,0.1-0.1,0.1-0.2c0.1,0,0.1,0,0.2,0c0.3,0,0.5,0,0.8,0c0.1,0.1,0.2,0.1,0.3,0c0.5,0,1-0.1,1.5-0.1c0.2,0,0.4,0,0.6,0
	c0,0,0.1,0,0.1,0c0.1,0,0.1,0,0.2,0c0,0,0.1,0.1,0.1,0.1c0,0,0-0.1,0-0.1c0,0,0.1,0,0.1,0c0,0,0.1,0,0.1,0c0.2,0,0.4,0,0.6,0
	c0.2,0,0.4,0,0.6,0c0,0,0.1,0,0.1,0c0,0,0.1,0,0.1,0c0,0,0.1,0,0.1,0c0.3,0,0.5,0,0.8,0c0,0,0.1,0.1,0.1,0.1c0,0,0,0,0.1,0
	c0,0,0-0.1,0-0.1c0,0,0.1,0,0.1,0c0.3,0,0.5,0,0.8,0c0,0,0,0,0,0c0,0,0,0,0,0c0.4,0,0.8,0,1.2-0.1c0,0.1,0.1,0.2,0.2,0.1
	c0.1,0,0.2-0.1,0.3-0.2c0.4,0,0.8-0.1,1.2-0.1c0,0,0,0,0,0c0,0,0,0,0,0c0,0,0,0,0,0c0.2,0,0.3,0,0.5-0.1c0.1,0.1,0.2,0.1,0.2,0
	c0.3,0,0.5,0,0.8-0.1c0.1,0,0.1,0.1,0.2,0.1c0,0,0.1-0.1,0.1-0.1c0.4,0,0.9-0.1,1.3-0.1c0,0,0,0,0,0c0,0,0,0,0,0c0.1,0,0.1,0,0.2,0
	c0.2,0.1,0.2,0,0.3-0.1l0,0c0.2,0,0.4,0,0.6,0c0.2,0,0.3,0,0.5-0.1c0.3,0,0.5-0.1,0.8-0.1c0.1,0,0.1,0,0.2,0c0,0,0.1,0.1,0.1,0.1
	c0,0,0-0.1,0.1-0.1c0.3,0,0.5-0.1,0.8-0.1c0,0,0.1,0,0.1,0c0.1,0,0.2,0,0.3,0c0.1,0,0.1,0,0.2,0.1c-0.3,0.2-0.5,0.4-0.8,0.6
	c-0.1,0.1-0.2,0.1-0.3,0.2c-0.2-0.1-0.3-0.1-0.4,0.1c0,0.1-0.1,0.2-0.1,0.2c-0.2,0.1-0.4,0.3-0.6,0.4c-0.1,0-0.1,0-0.1,0.1
	c-0.7,0.5-1.4,0.9-2.1,1.4c0,0,0,0,0,0c-0.7,0.5-1.5,1-2.2,1.5c-0.2,0.2-0.5,0.3-0.7,0.4c-0.2,0-0.2,0.1-0.2,0.2l0,0
	c-0.1,0-0.1,0-0.2,0c0,0,0,0,0.1,0c0,0-0.1,0.1-0.1,0.1c-0.1,0-0.2,0-0.3-0.1c0,0.1,0,0.1,0,0.2c-1,0-1.9,0-2.9,0
	c-0.1,0-0.2,0-0.2,0.1c0,0-0.1,0.1-0.1,0.1c0,0,0.1,0.1,0.1,0.1c0,0.7,0,1.4,0,2.2c0,0.1,0,0.1,0,0.2c0,0.4,0,0.8,0,1.1
	c0,0-0.1,0.1-0.1,0.1c0,0,0.1,0.1,0.1,0.1l0,0c0,0,0,0,0.1,0.1c0,0,0,0,0.1-0.1c1.1,0,2.3,0,3.4,0c0.1,0.1,0.2,0.1,0.3,0.2
	c0,0.1,0,0.1,0,0.2c0,0.3,0,0.7,0,1c0,0.3,0,0.5,0,0.8c0,0.5,0,0.9,0,1.4c-0.1,0-0.1,0.1-0.2,0.1c0,0,0,0.1-0.1,0.1
	c0,0.1-0.1,0.2-0.1,0.3c-0.1,0-0.2,0-0.3,0c-0.7,0-1.4,0-2.1,0c-0.4,0-0.7,0-1.1,0c0,0.9,0,1.8,0,2.7c0,0.1,0,0.1,0,0.2
	c0,0.8,0,1.5,0,2.3c-0.2,0.1-0.2,0.4,0,0.5c0,0,0,0.1,0.1,0.1c0,0.1,0,0.2,0,0.3c0,0.4,0,0.8,0,1.1c0,0.3,0,0.5,0,0.8
	c0,0.9,0,1.8,0,2.7c0,0.9,0,1.8,0,2.7l0,0c-0.5,0-1,0-1.6,0c-0.7,0-1.5,0-2.2,0c-0.6,0-1.2,0-1.8,0c0-0.6,0-1.1,0-1.7
	c0-0.1,0-0.1,0-0.2c0-0.3,0-0.6,0-0.8c0-0.1,0.1-0.1,0-0.2c0-0.3-0.1-0.6-0.1-0.9c0-1.1,0-2.2,0-3.2c0-0.1,0-0.1,0-0.2
	c0-0.3,0-0.5,0-0.8c0-0.1,0-0.1,0.1-0.2c0,0,0-0.1,0-0.1c0-0.3-0.1-0.5-0.1-0.8c0-1.3,0-2.5,0-3.8c0,0,0-0.1,0-0.1
	c0,0-0.1-0.1-0.2-0.1c0,0,0-0.1,0-0.1c0.2,0,0.2-0.1,0.1-0.2c0-0.1-0.1-0.1-0.2-0.1c-0.1,0-0.2,0-0.2,0.1c-0.5,0-1,0-1.6,0
	c0-0.1,0-0.2-0.2-0.2c-0.8,0-1.7,0-2.5,0c-0.2,0-0.3,0.1-0.3,0.2c-0.3,0-0.6,0-0.8,0c-0.2,0-0.3,0-0.5,0c-0.1,0-0.1,0-0.2,0
	c-0.9,0-1.7,0-2.6,0c0,0-0.1,0-0.1,0c-0.1,0-0.2,0-0.2,0c-0.1,0-0.1,0-0.2,0c0-0.1,0.1-0.2-0.1-0.2c0,0,0,0.1-0.1,0.2
	c-0.1,0-0.1,0-0.2,0c0-0.2-0.2-0.2-0.4-0.2c-0.6,0-1.3,0-1.9,0c-0.2,0-0.3,0.1-0.3,0.2c-0.3,0-0.6,0-0.8,0c-0.6,0-1.2,0-1.8,0
	c-0.2,0-0.4,0.1-0.4,0.3c0,0.2,0.1,0.3,0.3,0.3c0,0.1,0,0.1,0,0.2c0,0.6,0,1.2,0,1.9c0,0.3,0,0.6,0,0.9c0,0.6,0,1.2,0,1.8
	c0,0.9,0,1.8,0,2.7c0,0.3,0,0.6,0,0.9c0,0.6,0,1.2,0,1.8c0,0.1,0,0.2,0,0.3c0,0.8,0,1.6,0,2.4c-0.7,0-1.3,0-2,0
	C15.2,49.3,15.1,49.3,15,49.3z M17.3,31.7C17.3,31.7,17.3,31.8,17.3,31.7c0.6,0,1.2,0,1.8,0c0.1,0,0.2,0,0.3,0c1.1,0,2.1,0,3.2,0
	c0.1,0,0.2-0.1,0.2-0.1c0-0.4,0-0.8,0-1.2c0,0,0-0.1,0-0.1c0-0.6,0-1.2,0-1.8c0-0.2,0-0.5,0-0.8c-0.4,0-0.9,0-1.3,0
	c-0.8,0-1.6,0-2.4,0c-0.6,0-1.2,0-1.8,0c0,0.3,0,0.6,0,0.8c0,0.6,0,1.2,0,1.8C17.3,30.9,17.3,31.3,17.3,31.7z M30.7,31.8
	c0.4,0,0.8,0,1.2,0c0,0,0.1,0.1,0.1,0.1c0.1,0,0.1-0.1,0.2-0.1c0,0,0.1,0,0.1,0c0,0,0.1-0.1,0.1-0.1c0-0.1,0-0.2,0-0.3
	c0,0-0.1,0-0.1-0.1c0-0.1,0-0.1,0-0.2c0,0,0.1-0.1,0.1-0.1c0-0.2,0-0.4,0.1-0.5c0-0.1,0-0.2,0-0.3c0-0.2,0-0.5,0-0.7
	c0-0.4,0-0.8,0-1.1c0,0-0.1-0.1-0.1-0.1c0-0.1,0-0.1,0-0.2c0.1,0,0.2,0,0.2-0.1c0-0.2-0.2-0.3-0.5-0.3c-0.3,0-0.7,0-1,0
	c-0.2,0-0.5,0-0.7,0c-0.5,0-1,0-1.4,0c-0.6,0-1.1,0-1.7,0c-0.2,0-0.3,0-0.4,0.2c0,0,0,0.1,0,0.1c0,0.5,0,1.1,0,1.6
	c0,0.3,0,0.6,0,0.9c0,0.1,0,0.1,0,0.2c0,0.3,0,0.6,0,0.9c-0.1,0-0.2,0.1-0.1,0.1c0,0.1,0.1,0.1,0.2,0.1c0.1,0,0.3,0.1,0.3-0.1
	c1.1,0,2.2,0,3.4,0c0,0,0.1,0.1,0.1,0.1C30.6,31.9,30.6,31.8,30.7,31.8z"/>
</svg>
